<svg xmlns="http://www.w3.org/2000/svg" xmlns:xlink="http://www.w3.org/1999/xlink" width="500" zoomAndPan="magnify" viewBox="0 0 375 374.999991" height="500" preserveAspectRatio="xMidYMid meet" version="1.0"><defs><g/><clipPath id="4978caec3e"><path d="M 0 0 L 374.976562 0 L 374.976562 375 L 0 375 Z M 0 0 " clip-rule="nonzero"/></clipPath><clipPath id="492240b6d3"><path d="M 60 0 L 314.976562 0 C 330.890625 0 346.152344 6.320312 357.402344 17.574219 C 368.65625 28.824219 374.976562 44.085938 374.976562 60 L 374.976562 315 C 374.976562 330.914062 368.65625 346.175781 357.402344 357.425781 C 346.152344 368.679688 330.890625 375 314.976562 375 L 60 375 C 44.085938 375 28.824219 368.679688 17.574219 357.425781 C 6.320312 346.175781 0 330.914062 0 315 L 0 60 C 0 44.085938 6.320312 28.824219 17.574219 17.574219 C 28.824219 6.320312 44.085938 0 60 0 Z M 60 0 " clip-rule="nonzero"/></clipPath><clipPath id="13be751f00"><path d="M 0 0 L 374.976562 0 L 374.976562 375 L 0 375 Z M 0 0 " clip-rule="nonzero"/></clipPath><clipPath id="69b08718ba"><path d="M 60 0 L 314.976562 0 C 330.890625 0 346.152344 6.320312 357.402344 17.574219 C 368.65625 28.824219 374.976562 44.085938 374.976562 60 L 374.976562 315 C 374.976562 330.914062 368.65625 346.175781 357.402344 357.425781 C 346.152344 368.679688 330.890625 375 314.976562 375 L 60 375 C 44.085938 375 28.824219 368.679688 17.574219 357.425781 C 6.320312 346.175781 0 330.914062 0 315 L 0 60 C 0 44.085938 6.320312 28.824219 17.574219 17.574219 C 28.824219 6.320312 44.085938 0 60 0 Z M 60 0 " clip-rule="nonzero"/></clipPath><clipPath id="206a40cabf"><rect x="0" width="375" y="0" height="375"/></clipPath><clipPath id="43d2de3b9b"><rect x="0" width="209" y="0" height="212"/></clipPath></defs><g clip-path="url(#4978caec3e)"><g clip-path="url(#492240b6d3)"><g transform="matrix(1, 0, 0, 1, 0, 0)"><g clip-path="url(#206a40cabf)"><g clip-path="url(#13be751f00)"><g clip-path="url(#69b08718ba)"><path fill="#111827" d="M 0 0 L 374.976562 0 L 374.976562 374.976562 L 0 374.976562 Z M 0 0 " fill-opacity="1" fill-rule="nonzero"/></g></g></g></g></g></g><g transform="matrix(1, 0, 0, 1, 43, 4)"><g clip-path="url(#43d2de3b9b)"><g fill="#ffffff" fill-opacity="1"><g transform="translate(0.891814, 157.809842)"><g><path d="M 40.640625 -72.765625 C 42.734375 -76.648438 45.742188 -79.710938 49.671875 -81.953125 C 53.609375 -84.191406 58.316406 -85.3125 63.796875 -85.3125 C 70.367188 -85.3125 76.296875 -83.59375 81.578125 -80.15625 C 86.859375 -76.71875 91.015625 -71.738281 94.046875 -65.21875 C 97.085938 -58.695312 98.609375 -51 98.609375 -42.125 C 98.609375 -33.257812 97.085938 -25.566406 94.046875 -19.046875 C 91.015625 -12.523438 86.859375 -7.546875 81.578125 -4.109375 C 76.296875 -0.671875 70.367188 1.046875 63.796875 1.046875 C 58.316406 1.046875 53.609375 -0.0703125 49.671875 -2.3125 C 45.742188 -4.550781 42.734375 -7.613281 40.640625 -11.5 L 40.640625 0 L 7.46875 0 L 7.46875 -110.5625 L 40.640625 -110.5625 Z M 64.984375 -42.125 C 64.984375 -46.613281 63.835938 -50.101562 61.546875 -52.59375 C 59.265625 -55.082031 56.328125 -56.328125 52.734375 -56.328125 C 49.148438 -56.328125 46.210938 -55.082031 43.921875 -52.59375 C 41.628906 -50.101562 40.484375 -46.613281 40.484375 -42.125 C 40.484375 -37.644531 41.628906 -34.160156 43.921875 -31.671875 C 46.210938 -29.179688 49.148438 -27.9375 52.734375 -27.9375 C 56.328125 -27.9375 59.265625 -29.179688 61.546875 -31.671875 C 63.835938 -34.160156 64.984375 -37.644531 64.984375 -42.125 Z M 64.984375 -42.125 "/></g></g></g><g fill="#ffffff" fill-opacity="1"><g transform="translate(102.48723, 157.809842)"><g><path d="M 102.640625 -84.265625 L 48.703125 40.34375 L 12.40625 40.34375 L 33.609375 -4.1875 L -1.5 -84.265625 L 35.40625 -84.265625 L 51.25 -41.53125 L 66.03125 -84.265625 Z M 102.640625 -84.265625 "/></g></g></g></g></g><g fill="#06b6d4" fill-opacity="1"><g transform="translate(125.444293, 323.399686)"><g><path d="M 2.984375 -42.140625 C 2.984375 -51.003906 4.503906 -58.695312 7.546875 -65.21875 C 10.585938 -71.75 14.742188 -76.726562 20.015625 -80.15625 C 25.296875 -83.59375 31.222656 -85.3125 37.796875 -85.3125 C 43.273438 -85.3125 47.984375 -84.191406 51.921875 -81.953125 C 55.859375 -79.710938 58.875 -76.648438 60.96875 -72.765625 L 60.96875 -110.578125 L 94.140625 -110.578125 L 94.140625 0 L 60.96875 0 L 60.96875 -11.5 C 58.875 -7.613281 55.859375 -4.550781 51.921875 -2.3125 C 47.984375 -0.0703125 43.273438 1.046875 37.796875 1.046875 C 31.222656 1.046875 25.296875 -0.671875 20.015625 -4.109375 C 14.742188 -7.546875 10.585938 -12.523438 7.546875 -19.046875 C 4.503906 -25.578125 2.984375 -33.273438 2.984375 -42.140625 Z M 61.109375 -42.140625 C 61.109375 -46.617188 59.960938 -50.101562 57.671875 -52.59375 C 55.378906 -55.082031 52.441406 -56.328125 48.859375 -56.328125 C 45.273438 -56.328125 42.335938 -55.082031 40.046875 -52.59375 C 37.753906 -50.101562 36.609375 -46.617188 36.609375 -42.140625 C 36.609375 -37.648438 37.753906 -34.160156 40.046875 -31.671875 C 42.335938 -29.179688 45.273438 -27.9375 48.859375 -27.9375 C 52.441406 -27.9375 55.378906 -29.179688 57.671875 -31.671875 C 59.960938 -34.160156 61.109375 -37.648438 61.109375 -42.140625 Z M 61.109375 -42.140625 "/></g></g></g><g fill="#06b6d4" fill-opacity="1"><g transform="translate(227.045849, 323.399686)"><g><path d="M 40.640625 -72.765625 C 42.734375 -76.648438 45.742188 -79.710938 49.671875 -81.953125 C 53.609375 -84.191406 58.316406 -85.3125 63.796875 -85.3125 C 70.378906 -85.3125 76.304688 -83.59375 81.578125 -80.15625 C 86.859375 -76.726562 91.019531 -71.75 94.0625 -65.21875 C 97.101562 -58.695312 98.625 -51.003906 98.625 -42.140625 C 98.625 -33.273438 97.101562 -25.578125 94.0625 -19.046875 C 91.019531 -12.523438 86.859375 -7.546875 81.578125 -4.109375 C 76.304688 -0.671875 70.378906 1.046875 63.796875 1.046875 C 58.316406 1.046875 53.609375 -0.0703125 49.671875 -2.3125 C 45.742188 -4.550781 42.734375 -7.613281 40.640625 -11.5 L 40.640625 40.34375 L 7.46875 40.34375 L 7.46875 -84.28125 L 40.640625 -84.28125 Z M 65 -42.140625 C 65 -46.617188 63.851562 -50.101562 61.5625 -52.59375 C 59.269531 -55.082031 56.332031 -56.328125 52.75 -56.328125 C 49.15625 -56.328125 46.210938 -55.082031 43.921875 -52.59375 C 41.640625 -50.101562 40.5 -46.617188 40.5 -42.140625 C 40.5 -37.648438 41.640625 -34.160156 43.921875 -31.671875 C 46.210938 -29.179688 49.15625 -27.9375 52.75 -27.9375 C 56.332031 -27.9375 59.269531 -29.179688 61.5625 -31.671875 C 63.851562 -34.160156 65 -37.648438 65 -42.140625 Z M 65 -42.140625 "/></g></g></g></svg>